<svg width="36" height="36" viewBox="0 0 36 36" fill="none" xmlns="http://www.w3.org/2000/svg">
<g clip-path="url(#clip0_2_73)">
<path d="M0 0H36V36H0V0Z" fill="url(#paint0_linear_2_73)"/>
<path d="M26 21.194C25.6805 22.1155 25.2234 22.9834 24.644 23.768C24.106 24.494 23.666 24.996 23.328 25.274C22.804 25.734 22.24 25.968 21.638 25.98C21.204 25.98 20.682 25.862 20.074 25.626C19.5405 25.4061 18.9709 25.2868 18.394 25.274C17.858 25.274 17.282 25.39 16.666 25.626C16.048 25.862 15.55 25.986 15.17 25.998C14.594 26.022 14.016 25.782 13.442 25.274C13.074 24.972 12.616 24.45 12.066 23.714C11.4486 22.8772 10.958 21.9539 10.61 20.974C10.2182 19.9312 10.0117 18.8279 10 17.714C10 16.508 10.276 15.466 10.826 14.594C11.2573 13.9019 11.8561 13.3297 12.5672 12.9305C13.2783 12.5313 14.0786 12.3178 14.894 12.31C15.354 12.31 15.956 12.446 16.704 12.71C17.45 12.976 17.928 13.11 18.138 13.11C18.296 13.11 18.828 12.952 19.73 12.638C20.582 12.348 21.304 12.228 21.894 12.274C23.492 12.398 24.692 12.994 25.49 14.07C24.062 14.89 23.354 16.04 23.368 17.514C23.382 18.662 23.82 19.62 24.684 20.378C25.076 20.73 25.514 21 26 21.194ZM21.98 8C21.992 8.12 22 8.24 22 8.36C22 9.26 21.652 10.1 20.96 10.88C20.126 11.804 19.116 12.34 18.02 12.254C18.0061 12.1412 17.9994 12.0276 18 11.914C18 11.048 18.396 10.124 19.1 9.368C19.452 8.984 19.9 8.668 20.442 8.412C20.9235 8.17739 21.4457 8.03752 21.98 8Z" fill="white"/>
</g>
<defs>
<linearGradient id="paint0_linear_2_73" x1="6.698" y1="6.244" x2="43.808" y2="48.868" gradientUnits="userSpaceOnUse">
<stop stop-color="#1A1E21"/>
<stop offset="1" stop-color="#06060A"/>
</linearGradient>
<clipPath id="clip0_2_73">
<rect width="36" height="36" rx="18" fill="white"/>
</clipPath>
</defs>
</svg>
