<svg width="35" height="35" viewBox="0 0 35 35" fill="none" xmlns="http://www.w3.org/2000/svg">
<path d="M34.4764 21.7333C32.1389 31.1084 22.6424 36.8139 13.2651 34.4761C3.89176 32.1388 -1.81438 22.6428 0.524158 13.2685C2.86065 3.89233 12.3572 -1.81359 21.7315 0.52366C31.1081 2.86091 36.8139 12.358 34.4761 21.7335L34.4763 21.7333H34.4764Z" fill="#F7931A"/>
<path d="M25.2178 15.0066C25.5661 12.6778 23.7929 11.4259 21.3681 10.5908L22.1547 7.43616L20.2342 6.95765L19.4684 10.0293C18.9635 9.90334 18.445 9.7847 17.9297 9.66708L18.701 6.57521L16.7816 6.09671L15.9946 9.25034C15.5768 9.15522 15.1664 9.06121 14.7683 8.96216L14.7705 8.95224L12.122 8.29094L11.6111 10.342C11.6111 10.342 13.036 10.6686 13.006 10.6887C13.7837 10.8828 13.9243 11.3975 13.901 11.8055L13.0049 15.3994C13.0585 15.413 13.128 15.4327 13.2046 15.4635C13.1405 15.4476 13.0724 15.4302 13.0016 15.4133L11.7457 20.4478C11.6506 20.6841 11.4094 21.0386 10.8656 20.904C10.8849 20.9319 9.46975 20.5557 9.46975 20.5557L8.51624 22.7539L11.0155 23.3768C11.4805 23.4934 11.9361 23.6154 12.3848 23.7301L11.5901 26.921L13.5084 27.3995L14.2954 24.2425C14.8195 24.3847 15.3281 24.516 15.826 24.6396L15.0416 27.7817L16.9622 28.2602L17.7569 25.0754C21.0318 25.6951 23.4943 25.4452 24.5308 22.4834C25.366 20.0987 24.4893 18.7233 22.7663 17.8263C24.0212 17.537 24.9664 16.7117 25.2185 15.0069L25.2179 15.0065L25.2178 15.0066ZM20.8298 21.1591C20.2362 23.5437 16.2208 22.2547 14.9189 21.9314L15.9735 17.7041C17.2753 18.0291 21.4501 18.6721 20.8299 21.1591H20.8298ZM21.4237 14.9721C20.8823 17.1412 17.5402 16.0392 16.456 15.769L17.4122 11.935C18.4964 12.2053 21.9877 12.7096 21.4239 14.9721H21.4237Z" fill="white"/>
</svg>
