<svg width="130" height="40" viewBox="0 0 130 40" fill="none" xmlns="http://www.w3.org/2000/svg">
<g clip-path="url(#clip0_2_139)">
<rect width="130" height="40" rx="10" fill="white" fill-opacity="0.01"/>
<rect x="0.5" y="0.5" width="129" height="39" rx="9.5" stroke="white" stroke-opacity="0.08"/>
<g filter="url(#filter0_d_2_139)">
<path d="M28.4815 26.8889C28.1881 26.8889 27.9415 26.7889 27.7415 26.5889C27.5415 26.3889 27.4415 26.1422 27.4415 25.8489V12.3089C27.4415 12.0022 27.5415 11.7556 27.7415 11.5689C27.9415 11.3689 28.1881 11.2689 28.4815 11.2689C28.8815 11.2689 29.1881 11.4556 29.4015 11.8289L35.6615 24.3689H35.0215L41.1215 11.8289C41.3348 11.4556 41.6415 11.2689 42.0415 11.2689C42.3348 11.2689 42.5815 11.3689 42.7815 11.5689C42.9815 11.7556 43.0815 12.0022 43.0815 12.3089V25.8489C43.0815 26.1422 42.9748 26.3889 42.7615 26.5889C42.5615 26.7889 42.3215 26.8889 42.0415 26.8889C41.7481 26.8889 41.5015 26.7889 41.3015 26.5889C41.1015 26.3889 41.0015 26.1422 41.0015 25.8489V15.1889L41.4015 15.0889L36.1615 25.7689C35.9348 26.1156 35.6348 26.2889 35.2615 26.2889C34.8215 26.2889 34.5015 26.0822 34.3015 25.6689L29.1215 15.2889L29.5215 15.1889V25.8489C29.5215 26.1422 29.4215 26.3889 29.2215 26.5889C29.0215 26.7889 28.7748 26.8889 28.4815 26.8889ZM51.4499 26.9689C50.4766 26.9689 49.6032 26.7289 48.8299 26.2489C48.0566 25.7556 47.4432 25.0956 46.9899 24.2689C46.5499 23.4289 46.3299 22.4822 46.3299 21.4289C46.3299 20.3756 46.5699 19.4289 47.0499 18.5889C47.5432 17.7489 48.2032 17.0889 49.0299 16.6089C49.8699 16.1156 50.8099 15.8689 51.8499 15.8689C52.8899 15.8689 53.8232 16.1156 54.6499 16.6089C55.4766 17.0889 56.1299 17.7489 56.6099 18.5889C57.1032 19.4289 57.3499 20.3756 57.3499 21.4289H56.5699C56.5699 22.4822 56.3432 23.4289 55.8899 24.2689C55.4499 25.0956 54.8432 25.7556 54.0699 26.2489C53.2966 26.7289 52.4232 26.9689 51.4499 26.9689ZM51.8499 25.1689C52.5299 25.1689 53.1366 25.0089 53.6699 24.6889C54.2032 24.3556 54.6232 23.9089 54.9299 23.3489C55.2366 22.7756 55.3899 22.1356 55.3899 21.4289C55.3899 20.7089 55.2366 20.0689 54.9299 19.5089C54.6232 18.9356 54.2032 18.4889 53.6699 18.1689C53.1366 17.8356 52.5299 17.6689 51.8499 17.6689C51.1832 17.6689 50.5766 17.8356 50.0299 18.1689C49.4966 18.4889 49.0699 18.9356 48.7499 19.5089C48.4432 20.0689 48.2899 20.7089 48.2899 21.4289C48.2899 22.1356 48.4432 22.7756 48.7499 23.3489C49.0699 23.9089 49.4966 24.3556 50.0299 24.6889C50.5766 25.0089 51.1832 25.1689 51.8499 25.1689ZM56.3299 26.9089C56.0366 26.9089 55.7899 26.8156 55.5899 26.6289C55.4032 26.4289 55.3099 26.1822 55.3099 25.8889V22.8289L55.6899 20.7089L57.3499 21.4289V25.8889C57.3499 26.1822 57.2499 26.4289 57.0499 26.6289C56.8632 26.8156 56.6232 26.9089 56.3299 26.9089ZM62.986 26.8889C62.3993 26.8889 61.8793 26.7289 61.426 26.4089C60.9727 26.0889 60.6193 25.6556 60.366 25.1089C60.1126 24.5489 59.986 23.9089 59.986 23.1889V12.2689C59.986 11.9756 60.0793 11.7356 60.266 11.5489C60.4527 11.3622 60.6927 11.2689 60.986 11.2689C61.2793 11.2689 61.5193 11.3622 61.706 11.5489C61.8926 11.7356 61.986 11.9756 61.986 12.2689V23.1889C61.986 23.6822 62.0793 24.0889 62.266 24.4089C62.4527 24.7289 62.6927 24.8889 62.986 24.8889H63.486C63.7527 24.8889 63.966 24.9822 64.126 25.1689C64.2993 25.3556 64.386 25.5956 64.386 25.8889C64.386 26.1822 64.2593 26.4222 64.006 26.6089C63.7527 26.7956 63.426 26.8889 63.026 26.8889H62.986ZM67.4821 26.8889C67.2421 26.8889 67.0487 26.8222 66.9021 26.6889C66.7687 26.5422 66.7021 26.3489 66.7021 26.1089V16.7289C66.7021 16.4889 66.7687 16.3022 66.9021 16.1689C67.0487 16.0222 67.2421 15.9489 67.4821 15.9489C67.7087 15.9489 67.8887 16.0222 68.0221 16.1689C68.1687 16.3022 68.2421 16.4889 68.2421 16.7289V26.1089C68.2421 26.3489 68.1687 26.5422 68.0221 26.6889C67.8887 26.8222 67.7087 26.8889 67.4821 26.8889ZM67.4621 13.8689C67.1687 13.8689 66.9154 13.7622 66.7021 13.5489C66.4887 13.3356 66.3821 13.0756 66.3821 12.7689C66.3821 12.4356 66.4887 12.1756 66.7021 11.9889C66.9287 11.7889 67.1887 11.6889 67.4821 11.6889C67.7621 11.6889 68.0087 11.7889 68.2221 11.9889C68.4487 12.1756 68.5621 12.4356 68.5621 12.7689C68.5621 13.0756 68.4554 13.3356 68.2421 13.5489C68.0287 13.7622 67.7687 13.8689 67.4621 13.8689Z" fill="white"/>
<path d="M77.1433 26.9889C76.0767 26.9889 75.1233 26.7489 74.2833 26.2689C73.4433 25.7889 72.7833 25.1289 72.3033 24.2889C71.8233 23.4489 71.5833 22.4956 71.5833 21.4289C71.5833 20.3489 71.8233 19.3889 72.3033 18.5489C72.7833 17.7089 73.4433 17.0489 74.2833 16.5689C75.1233 16.0889 76.0767 15.8489 77.1433 15.8489C78.21 15.8489 79.1567 16.0889 79.9833 16.5689C80.8233 17.0489 81.4833 17.7089 81.9633 18.5489C82.4433 19.3889 82.69 20.3489 82.7033 21.4289C82.7033 22.4956 82.4567 23.4489 81.9633 24.2889C81.4833 25.1289 80.8233 25.7889 79.9833 26.2689C79.1567 26.7489 78.21 26.9889 77.1433 26.9889ZM77.1433 25.5889C77.9167 25.5889 78.61 25.4089 79.2233 25.0489C79.8367 24.6889 80.3167 24.1956 80.6633 23.5689C81.01 22.9422 81.1833 22.2289 81.1833 21.4289C81.1833 20.6289 81.01 19.9156 80.6633 19.2889C80.3167 18.6489 79.8367 18.1489 79.2233 17.7889C78.61 17.4289 77.9167 17.2489 77.1433 17.2489C76.37 17.2489 75.6767 17.4289 75.0633 17.7889C74.45 18.1489 73.9633 18.6489 73.6033 19.2889C73.2567 19.9156 73.0833 20.6289 73.0833 21.4289C73.0833 22.2289 73.2567 22.9422 73.6033 23.5689C73.9633 24.1956 74.45 24.6889 75.0633 25.0489C75.6767 25.4089 76.37 25.5889 77.1433 25.5889ZM95.0785 26.8889C94.8518 26.8889 94.6652 26.8156 94.5185 26.6689C94.3718 26.5222 94.2985 26.3422 94.2985 26.1289V20.9289C94.2985 20.1022 94.1385 19.4222 93.8185 18.8889C93.5118 18.3556 93.0852 17.9556 92.5385 17.6889C92.0052 17.4222 91.3985 17.2889 90.7185 17.2889C90.0652 17.2889 89.4718 17.4156 88.9385 17.6689C88.4185 17.9222 88.0052 18.2689 87.6985 18.7089C87.3918 19.1489 87.2385 19.6489 87.2385 20.2089H86.1385C86.1652 19.3689 86.3918 18.6222 86.8185 17.9689C87.2452 17.3022 87.8118 16.7822 88.5185 16.4089C89.2252 16.0222 90.0118 15.8289 90.8785 15.8289C91.8252 15.8289 92.6718 16.0289 93.4185 16.4289C94.1652 16.8156 94.7518 17.3889 95.1785 18.1489C95.6185 18.9089 95.8385 19.8356 95.8385 20.9289V26.1289C95.8385 26.3422 95.7652 26.5222 95.6185 26.6689C95.4718 26.8156 95.2918 26.8889 95.0785 26.8889ZM86.4785 26.8889C86.2385 26.8889 86.0452 26.8222 85.8985 26.6889C85.7652 26.5422 85.6985 26.3556 85.6985 26.1289V16.7289C85.6985 16.4889 85.7652 16.3022 85.8985 16.1689C86.0452 16.0222 86.2385 15.9489 86.4785 15.9489C86.7052 15.9489 86.8852 16.0222 87.0185 16.1689C87.1652 16.3022 87.2385 16.4889 87.2385 16.7289V26.1289C87.2385 26.3556 87.1652 26.5422 87.0185 26.6889C86.8852 26.8222 86.7052 26.8889 86.4785 26.8889ZM103.514 26.8889C102.807 26.8889 102.174 26.7222 101.614 26.3889C101.067 26.0556 100.634 25.6022 100.314 25.0289C99.9936 24.4422 99.8336 23.7756 99.8336 23.0289V13.2489C99.8336 13.0222 99.9003 12.8356 100.034 12.6889C100.18 12.5422 100.367 12.4689 100.594 12.4689C100.82 12.4689 101.007 12.5422 101.154 12.6889C101.3 12.8356 101.374 13.0222 101.374 13.2489V23.0289C101.374 23.7089 101.574 24.2689 101.974 24.7089C102.374 25.1356 102.887 25.3489 103.514 25.3489H104.054C104.267 25.3489 104.44 25.4222 104.574 25.5689C104.707 25.7156 104.774 25.9022 104.774 26.1289C104.774 26.3556 104.694 26.5422 104.534 26.6889C104.374 26.8222 104.174 26.8889 103.934 26.8889H103.514ZM98.5336 17.6889C98.3336 17.6889 98.167 17.6289 98.0336 17.5089C97.9003 17.3756 97.8336 17.2156 97.8336 17.0289C97.8336 16.8289 97.9003 16.6689 98.0336 16.5489C98.167 16.4156 98.3336 16.3489 98.5336 16.3489H103.634C103.834 16.3489 104 16.4156 104.134 16.5489C104.267 16.6689 104.334 16.8289 104.334 17.0289C104.334 17.2156 104.267 17.3756 104.134 17.5089C104 17.6289 103.834 17.6889 103.634 17.6889H98.5336Z" fill="#E81C5A"/>
</g>
</g>
<defs>
<filter id="filter0_d_2_139" x="23.4415" y="11.2689" width="85.3322" height="23.72" filterUnits="userSpaceOnUse" color-interpolation-filters="sRGB">
<feFlood flood-opacity="0" result="BackgroundImageFix"/>
<feColorMatrix in="SourceAlpha" type="matrix" values="0 0 0 0 0 0 0 0 0 0 0 0 0 0 0 0 0 0 127 0" result="hardAlpha"/>
<feOffset dy="4"/>
<feGaussianBlur stdDeviation="2"/>
<feComposite in2="hardAlpha" operator="out"/>
<feColorMatrix type="matrix" values="0 0 0 0 0 0 0 0 0 0 0 0 0 0 0 0 0 0 0.25 0"/>
<feBlend mode="normal" in2="BackgroundImageFix" result="effect1_dropShadow_2_139"/>
<feBlend mode="normal" in="SourceGraphic" in2="effect1_dropShadow_2_139" result="shape"/>
</filter>
<clipPath id="clip0_2_139">
<rect width="130" height="40" rx="10" fill="white"/>
</clipPath>
</defs>
</svg>
