<svg width="37" height="20" viewBox="0 0 37 20" fill="none" xmlns="http://www.w3.org/2000/svg">
<rect width="37" height="20" rx="10" fill="#111111"/>
<rect x="7" y="6" width="12" height="9" rx="4" fill="#E81C5A"/>
<path d="M15.7861 8.086V13H14.5891V10.053L13.4901 13H12.5241L11.4181 10.046V13H10.2211V8.086H11.6351L13.0141 11.488L14.3791 8.086H15.7861Z" fill="white"/>
<path d="M23.0558 8.086V13H21.8588V8.086H23.0558ZM25.7643 8.086C26.2823 8.086 26.7349 8.18867 27.1223 8.394C27.5096 8.59933 27.8083 8.88867 28.0183 9.262C28.2329 9.63067 28.3403 10.0577 28.3403 10.543C28.3403 11.0237 28.2329 11.4507 28.0183 11.824C27.8083 12.1973 27.5073 12.4867 27.1153 12.692C26.7279 12.8973 26.2776 13 25.7643 13H23.9233V8.086H25.7643ZM25.6873 11.964C26.1399 11.964 26.4923 11.8403 26.7443 11.593C26.9963 11.3457 27.1223 10.9957 27.1223 10.543C27.1223 10.0903 26.9963 9.738 26.7443 9.486C26.4923 9.234 26.1399 9.108 25.6873 9.108H25.1203V11.964H25.6873Z" fill="white"/>
</svg>
