<svg width="360" height="81" viewBox="0 0 360 81" fill="none" xmlns="http://www.w3.org/2000/svg">
<rect width="360" height="81" rx="15" fill="#111111"/>
<path d="M47.1 26H28.5C27.6716 26 27 26.6716 27 27.5V31.1C27 31.9284 27.6716 32.6 28.5 32.6H47.1C47.9284 32.6 48.6 31.9284 48.6 31.1V27.5C48.6 26.6716 47.9284 26 47.1 26Z" fill="url(#paint0_linear_14_47)"/>
<path d="M32.4 35.3H28.5C27.6716 35.3 27 35.9716 27 36.8V54.8C27 55.6284 27.6716 56.3 28.5 56.3H32.4C33.2284 56.3 33.9 55.6284 33.9 54.8V36.8C33.9 35.9716 33.2284 35.3 32.4 35.3Z" fill="url(#paint1_linear_14_47)"/>
<path d="M47.1 35.3H43.5C42.6716 35.3 42 35.9716 42 36.8V54.8C42 55.6284 42.6716 56.3 43.5 56.3H47.1C47.9284 56.3 48.6 55.6284 48.6 54.8V36.8C48.6 35.9716 47.9284 35.3 47.1 35.3Z" fill="url(#paint2_linear_14_47)"/>
<path d="M75.321 26.0909H76.8977L80.6051 35.1463H80.733L84.4403 26.0909H86.017V37H84.7812V28.7116H84.6747L81.2656 37H80.0724L76.6634 28.7116H76.5568V37H75.321V26.0909ZM90.903 37.1918C90.3845 37.1918 89.914 37.0941 89.4914 36.8988C89.0688 36.6999 88.7332 36.4141 88.4846 36.0412C88.2361 35.6648 88.1118 35.2102 88.1118 34.6776C88.1118 34.2088 88.2041 33.8288 88.3888 33.5376C88.5734 33.2429 88.8202 33.0121 89.1292 32.8452C89.4381 32.6783 89.779 32.554 90.1519 32.4723C90.5283 32.3871 90.9065 32.3196 91.2865 32.2699C91.7836 32.206 92.1867 32.158 92.4957 32.1261C92.8082 32.0906 93.0354 32.032 93.1775 31.9503C93.3231 31.8686 93.3959 31.7266 93.3959 31.5241V31.4815C93.3959 30.956 93.252 30.5476 92.9644 30.2564C92.6803 29.9652 92.2488 29.8196 91.67 29.8196C91.0699 29.8196 90.5993 29.951 90.2584 30.2138C89.9175 30.4766 89.6778 30.7571 89.5393 31.0554L88.3461 30.6293C88.5592 30.1321 88.8433 29.745 89.1984 29.468C89.5571 29.1875 89.9477 28.9922 90.3703 28.8821C90.7964 28.7685 91.2155 28.7116 91.6274 28.7116C91.8902 28.7116 92.192 28.7436 92.5329 28.8075C92.8774 28.8679 93.2094 28.994 93.529 29.1857C93.8522 29.3775 94.1203 29.6669 94.3334 30.054C94.5464 30.4411 94.653 30.9595 94.653 31.6094V37H93.3959V35.892H93.3319C93.2467 36.0696 93.1047 36.2596 92.9058 36.462C92.7069 36.6644 92.4424 36.8366 92.1121 36.9787C91.7819 37.1207 91.3788 37.1918 90.903 37.1918ZM91.0947 36.0625C91.5919 36.0625 92.0109 35.9648 92.3518 35.7695C92.6963 35.5742 92.9555 35.3221 93.1295 35.0131C93.3071 34.7042 93.3959 34.3793 93.3959 34.0384V32.8878C93.3426 32.9517 93.2254 33.0103 93.0443 33.0636C92.8667 33.1133 92.6608 33.1577 92.4264 33.1967C92.1956 33.2322 91.9701 33.2642 91.7499 33.2926C91.5333 33.3175 91.3575 33.3388 91.2226 33.3565C90.8959 33.3991 90.5905 33.4684 90.3064 33.5643C90.0258 33.6566 89.7986 33.7969 89.6246 33.9851C89.4541 34.1697 89.3689 34.4219 89.3689 34.7415C89.3689 35.1783 89.5305 35.5085 89.8536 35.7322C90.1803 35.9524 90.594 36.0625 91.0947 36.0625ZM98.2045 26.0909V37H96.9474V26.0909H98.2045ZM100.507 37V28.8182H101.764V37H100.507ZM101.146 27.4545C100.901 27.4545 100.69 27.3711 100.512 27.2042C100.338 27.0373 100.251 26.8366 100.251 26.6023C100.251 26.3679 100.338 26.1673 100.512 26.0004C100.69 25.8335 100.901 25.75 101.146 25.75C101.391 25.75 101.601 25.8335 101.775 26.0004C101.952 26.1673 102.041 26.3679 102.041 26.6023C102.041 26.8366 101.952 27.0373 101.775 27.2042C101.601 27.3711 101.391 27.4545 101.146 27.4545ZM107.39 37.1705C106.652 37.1705 106.004 36.9947 105.446 36.6431C104.892 36.2915 104.459 35.7997 104.146 35.1676C103.838 34.5355 103.683 33.7969 103.683 32.9517C103.683 32.0994 103.838 31.3555 104.146 30.7198C104.459 30.0842 104.892 29.5906 105.446 29.239C106.004 28.8874 106.652 28.7116 107.39 28.7116C108.129 28.7116 108.775 28.8874 109.329 29.239C109.887 29.5906 110.32 30.0842 110.629 30.7198C110.942 31.3555 111.098 32.0994 111.098 32.9517C111.098 33.7969 110.942 34.5355 110.629 35.1676C110.32 35.7997 109.887 36.2915 109.329 36.6431C108.775 36.9947 108.129 37.1705 107.39 37.1705ZM107.39 36.0412C107.952 36.0412 108.413 35.8974 108.775 35.6097C109.138 35.3221 109.406 34.9439 109.58 34.4751C109.754 34.0064 109.841 33.4986 109.841 32.9517C109.841 32.4048 109.754 31.8952 109.58 31.4229C109.406 30.9506 109.138 30.5689 108.775 30.2777C108.413 29.9865 107.952 29.8409 107.39 29.8409C106.829 29.8409 106.368 29.9865 106.006 30.2777C105.643 30.5689 105.375 30.9506 105.201 31.4229C105.027 31.8952 104.94 32.4048 104.94 32.9517C104.94 33.4986 105.027 34.0064 105.201 34.4751C105.375 34.9439 105.643 35.3221 106.006 35.6097C106.368 35.8974 106.829 36.0412 107.39 36.0412ZM114.274 32.0781V37H113.017V28.8182H114.231V30.0966H114.338C114.53 29.6811 114.821 29.3473 115.211 29.0952C115.602 28.8395 116.106 28.7116 116.724 28.7116C117.278 28.7116 117.763 28.8253 118.178 29.0526C118.594 29.2763 118.917 29.6172 119.148 30.0753C119.379 30.5298 119.494 31.1051 119.494 31.8011V37H118.237V31.8864C118.237 31.2436 118.07 30.7429 117.736 30.3842C117.402 30.022 116.944 29.8409 116.362 29.8409C115.961 29.8409 115.602 29.9279 115.286 30.1019C114.973 30.2759 114.727 30.5298 114.546 30.8636C114.364 31.1974 114.274 31.6023 114.274 32.0781ZM125.349 28.8182V29.8835H121.109V28.8182H125.349ZM122.345 26.858H123.602V34.6562C123.602 35.0114 123.654 35.2777 123.757 35.4553C123.863 35.6293 123.998 35.7464 124.162 35.8068C124.328 35.8636 124.504 35.892 124.689 35.892C124.827 35.892 124.941 35.8849 125.03 35.8707C125.119 35.853 125.19 35.8388 125.243 35.8281L125.499 36.9574C125.413 36.9893 125.294 37.0213 125.142 37.0533C124.989 37.0888 124.795 37.1065 124.561 37.1065C124.206 37.1065 123.858 37.0302 123.517 36.8775C123.18 36.7248 122.899 36.4922 122.675 36.1797C122.455 35.8672 122.345 35.473 122.345 34.9972V26.858ZM136.189 29.5H134.868C134.79 29.12 134.653 28.7862 134.458 28.4986C134.266 28.2109 134.032 27.9695 133.755 27.7741C133.482 27.5753 133.178 27.4261 132.844 27.3267C132.51 27.2273 132.162 27.1776 131.8 27.1776C131.14 27.1776 130.541 27.3445 130.005 27.6783C129.472 28.0121 129.048 28.5039 128.732 29.1538C128.419 29.8036 128.263 30.6009 128.263 31.5455C128.263 32.4901 128.419 33.2873 128.732 33.9371C129.048 34.587 129.472 35.0788 130.005 35.4126C130.541 35.7464 131.14 35.9134 131.8 35.9134C132.162 35.9134 132.51 35.8636 132.844 35.7642C133.178 35.6648 133.482 35.5174 133.755 35.3221C134.032 35.1232 134.266 34.88 134.458 34.5923C134.653 34.3011 134.79 33.9673 134.868 33.5909H136.189C136.09 34.1484 135.909 34.6474 135.646 35.0877C135.383 35.5281 135.056 35.9027 134.666 36.2116C134.275 36.517 133.837 36.7496 133.35 36.9094C132.867 37.0692 132.35 37.1491 131.8 37.1491C130.87 37.1491 130.042 36.9219 129.318 36.4673C128.593 36.0128 128.023 35.3665 127.608 34.5284C127.192 33.6903 126.985 32.696 126.985 31.5455C126.985 30.3949 127.192 29.4006 127.608 28.5625C128.023 27.7244 128.593 27.0781 129.318 26.6236C130.042 26.169 130.87 25.9418 131.8 25.9418C132.35 25.9418 132.867 26.0217 133.35 26.1815C133.837 26.3413 134.275 26.5756 134.666 26.8846C135.056 27.19 135.383 27.5629 135.646 28.0032C135.909 28.44 136.09 28.9389 136.189 29.5ZM141.477 37.1705C140.739 37.1705 140.091 36.9947 139.533 36.6431C138.979 36.2915 138.546 35.7997 138.233 35.1676C137.924 34.5355 137.77 33.7969 137.77 32.9517C137.77 32.0994 137.924 31.3555 138.233 30.7198C138.546 30.0842 138.979 29.5906 139.533 29.239C140.091 28.8874 140.739 28.7116 141.477 28.7116C142.216 28.7116 142.862 28.8874 143.416 29.239C143.974 29.5906 144.407 30.0842 144.716 30.7198C145.028 31.3555 145.185 32.0994 145.185 32.9517C145.185 33.7969 145.028 34.5355 144.716 35.1676C144.407 35.7997 143.974 36.2915 143.416 36.6431C142.862 36.9947 142.216 37.1705 141.477 37.1705ZM141.477 36.0412C142.038 36.0412 142.5 35.8974 142.862 35.6097C143.225 35.3221 143.493 34.9439 143.667 34.4751C143.841 34.0064 143.928 33.4986 143.928 32.9517C143.928 32.4048 143.841 31.8952 143.667 31.4229C143.493 30.9506 143.225 30.5689 142.862 30.2777C142.5 29.9865 142.038 29.8409 141.477 29.8409C140.916 29.8409 140.455 29.9865 140.092 30.2777C139.73 30.5689 139.462 30.9506 139.288 31.4229C139.114 31.8952 139.027 32.4048 139.027 32.9517C139.027 33.4986 139.114 34.0064 139.288 34.4751C139.462 34.9439 139.73 35.3221 140.092 35.6097C140.455 35.8974 140.916 36.0412 141.477 36.0412ZM148.361 32.0781V37H147.104V28.8182H148.318V30.0966H148.425C148.616 29.6811 148.908 29.3473 149.298 29.0952C149.689 28.8395 150.193 28.7116 150.811 28.7116C151.365 28.7116 151.85 28.8253 152.265 29.0526C152.681 29.2763 153.004 29.6172 153.235 30.0753C153.466 30.5298 153.581 31.1051 153.581 31.8011V37H152.324V31.8864C152.324 31.2436 152.157 30.7429 151.823 30.3842C151.489 30.022 151.031 29.8409 150.449 29.8409C150.048 29.8409 149.689 29.9279 149.373 30.1019C149.06 30.2759 148.814 30.5298 148.632 30.8636C148.451 31.1974 148.361 31.6023 148.361 32.0781ZM157.135 32.0781V37H155.878V28.8182H157.093V30.0966H157.199C157.391 29.6811 157.682 29.3473 158.073 29.0952C158.463 28.8395 158.968 28.7116 159.585 28.7116C160.139 28.7116 160.624 28.8253 161.04 29.0526C161.455 29.2763 161.778 29.6172 162.009 30.0753C162.24 30.5298 162.355 31.1051 162.355 31.8011V37H161.098V31.8864C161.098 31.2436 160.931 30.7429 160.598 30.3842C160.264 30.022 159.806 29.8409 159.223 29.8409C158.822 29.8409 158.463 29.9279 158.147 30.1019C157.835 30.2759 157.588 30.5298 157.407 30.8636C157.226 31.1974 157.135 31.6023 157.135 32.0781ZM168.083 37.1705C167.295 37.1705 166.615 36.9964 166.043 36.6484C165.475 36.2969 165.036 35.8068 164.727 35.1783C164.422 34.5462 164.269 33.8111 164.269 32.973C164.269 32.1349 164.422 31.3963 164.727 30.7571C165.036 30.1143 165.466 29.6136 166.016 29.255C166.57 28.8928 167.216 28.7116 167.955 28.7116C168.381 28.7116 168.802 28.7827 169.218 28.9247C169.633 29.0668 170.011 29.2976 170.352 29.6172C170.693 29.9332 170.965 30.3523 171.167 30.8743C171.369 31.3963 171.471 32.0391 171.471 32.8026V33.3352H165.164V32.2486H170.192C170.192 31.7869 170.1 31.375 169.915 31.0128C169.734 30.6506 169.475 30.3647 169.138 30.1552C168.804 29.9457 168.41 29.8409 167.955 29.8409C167.454 29.8409 167.021 29.9652 166.655 30.2138C166.293 30.4588 166.014 30.7784 165.819 31.1726C165.624 31.5668 165.526 31.9893 165.526 32.4403V33.1648C165.526 33.7827 165.633 34.3065 165.846 34.7362C166.062 35.1623 166.362 35.4872 166.746 35.7109C167.129 35.9311 167.575 36.0412 168.083 36.0412C168.413 36.0412 168.711 35.995 168.978 35.9027C169.248 35.8068 169.48 35.6648 169.676 35.4766C169.871 35.2848 170.022 35.0469 170.128 34.7628L171.343 35.1037C171.215 35.5156 171 35.8778 170.698 36.1903C170.396 36.4993 170.024 36.7408 169.58 36.9148C169.136 37.0852 168.637 37.1705 168.083 37.1705ZM176.707 37.1705C175.94 37.1705 175.279 36.9893 174.725 36.6271C174.171 36.2649 173.745 35.766 173.447 35.1303C173.149 34.4947 172.999 33.7685 172.999 32.9517C172.999 32.1207 173.152 31.3874 173.458 30.7518C173.767 30.1126 174.196 29.6136 174.747 29.255C175.301 28.8928 175.947 28.7116 176.686 28.7116C177.261 28.7116 177.779 28.8182 178.241 29.0312C178.703 29.2443 179.081 29.5426 179.376 29.9261C179.67 30.3097 179.853 30.7571 179.924 31.2685H178.667C178.571 30.8956 178.358 30.5653 178.028 30.2777C177.701 29.9865 177.261 29.8409 176.707 29.8409C176.217 29.8409 175.787 29.9687 175.418 30.2244C175.052 30.4766 174.766 30.8335 174.56 31.2951C174.358 31.7532 174.257 32.2912 174.257 32.9091C174.257 33.5412 174.356 34.0916 174.555 34.5604C174.757 35.0291 175.041 35.3931 175.407 35.6523C175.776 35.9116 176.21 36.0412 176.707 36.0412C177.034 36.0412 177.33 35.9844 177.596 35.8707C177.863 35.7571 178.088 35.5938 178.273 35.3807C178.458 35.1676 178.589 34.9119 178.667 34.6136H179.924C179.853 35.0966 179.677 35.5316 179.397 35.9187C179.12 36.3022 178.752 36.6076 178.294 36.8349C177.84 37.0586 177.311 37.1705 176.707 37.1705ZM185.32 28.8182V29.8835H181.08V28.8182H185.32ZM182.316 26.858H183.573V34.6562C183.573 35.0114 183.624 35.2777 183.727 35.4553C183.834 35.6293 183.969 35.7464 184.132 35.8068C184.299 35.8636 184.475 35.892 184.66 35.892C184.798 35.892 184.912 35.8849 185.001 35.8707C185.089 35.853 185.16 35.8388 185.214 35.8281L185.469 36.9574C185.384 36.9893 185.265 37.0213 185.112 37.0533C184.96 37.0888 184.766 37.1065 184.532 37.1065C184.177 37.1065 183.829 37.0302 183.488 36.8775C183.15 36.7248 182.87 36.4922 182.646 36.1797C182.426 35.8672 182.316 35.473 182.316 34.9972V26.858Z" fill="white"/>
<path d="M81.5852 49.2727V58H80.5284V50.2102H76.1307V58H75.0739V49.2727H81.5852ZM86.2397 58.1364C85.6488 58.1364 85.1303 57.9957 84.6843 57.7145C84.2411 57.4332 83.8945 57.0398 83.6445 56.5341C83.3974 56.0284 83.2738 55.4375 83.2738 54.7614C83.2738 54.0795 83.3974 53.4844 83.6445 52.9759C83.8945 52.4673 84.2411 52.0724 84.6843 51.7912C85.1303 51.5099 85.6488 51.3693 86.2397 51.3693C86.8306 51.3693 87.3477 51.5099 87.7908 51.7912C88.2369 52.0724 88.5835 52.4673 88.8306 52.9759C89.0806 53.4844 89.2056 54.0795 89.2056 54.7614C89.2056 55.4375 89.0806 56.0284 88.8306 56.5341C88.5835 57.0398 88.2369 57.4332 87.7908 57.7145C87.3477 57.9957 86.8306 58.1364 86.2397 58.1364ZM86.2397 57.233C86.6886 57.233 87.0579 57.1179 87.3477 56.8878C87.6374 56.6577 87.8519 56.3551 87.9911 55.9801C88.1303 55.6051 88.1999 55.1989 88.1999 54.7614C88.1999 54.3239 88.1303 53.9162 87.9911 53.5384C87.8519 53.1605 87.6374 52.8551 87.3477 52.6222C87.0579 52.3892 86.6886 52.2727 86.2397 52.2727C85.7908 52.2727 85.4215 52.3892 85.1317 52.6222C84.842 52.8551 84.6275 53.1605 84.4883 53.5384C84.3491 53.9162 84.2795 54.3239 84.2795 54.7614C84.2795 55.1989 84.3491 55.6051 84.4883 55.9801C84.6275 56.3551 84.842 56.6577 85.1317 56.8878C85.4215 57.1179 85.7908 57.233 86.2397 57.233ZM90.0419 59.875V57.0625H90.5874C90.7209 56.9233 90.8359 56.7727 90.9325 56.6108C91.0291 56.4489 91.1129 56.2571 91.1839 56.0355C91.2578 55.8111 91.3203 55.5384 91.3714 55.2173C91.4226 54.8935 91.468 54.5028 91.5078 54.0455L91.7294 51.4545H95.8885V57.0625H96.8942V59.875H95.8885V58H91.0476V59.875H90.0419ZM91.7294 57.0625H94.8828V52.392H92.6669L92.4964 54.0455C92.4254 54.7301 92.3374 55.3281 92.2322 55.8395C92.1271 56.3509 91.9595 56.7585 91.7294 57.0625ZM98.229 58V51.4545H99.2347V54.3011H99.8995L102.252 51.4545H103.547L100.905 54.608L103.581 58H102.286L100.138 55.2386H99.2347V58H98.229ZM104.095 58V57.0625H104.333C104.529 57.0625 104.693 57.0241 104.824 56.9474C104.954 56.8679 105.059 56.7301 105.139 56.5341C105.221 56.3352 105.284 56.0597 105.326 55.7074C105.372 55.3523 105.404 54.9006 105.424 54.3523L105.544 51.4545H109.907V58H108.902V52.392H106.498L106.396 54.7273C106.373 55.2642 106.325 55.7372 106.251 56.1463C106.18 56.5526 106.071 56.8935 105.923 57.169C105.778 57.4446 105.585 57.652 105.343 57.7912C105.102 57.9304 104.799 58 104.436 58H104.095ZM114.889 54.3182V55.2557H111.429V54.3182H114.889ZM112.281 51.4545V58H111.275V51.4545H112.281ZM116.9 58.1364C116.309 58.1364 115.791 57.9957 115.345 57.7145C114.902 57.4332 114.555 57.0398 114.305 56.5341C114.058 56.0284 113.934 55.4375 113.934 54.7614C113.934 54.0795 114.058 53.4844 114.305 52.9759C114.555 52.4673 114.902 52.0724 115.345 51.7912C115.791 51.5099 116.309 51.3693 116.9 51.3693C117.491 51.3693 118.008 51.5099 118.451 51.7912C118.897 52.0724 119.244 52.4673 119.491 52.9759C119.741 53.4844 119.866 54.0795 119.866 54.7614C119.866 55.4375 119.741 56.0284 119.491 56.5341C119.244 57.0398 118.897 57.4332 118.451 57.7145C118.008 57.9957 117.491 58.1364 116.9 58.1364ZM116.9 57.233C117.349 57.233 117.718 57.1179 118.008 56.8878C118.298 56.6577 118.512 56.3551 118.652 55.9801C118.791 55.6051 118.86 55.1989 118.86 54.7614C118.86 54.3239 118.791 53.9162 118.652 53.5384C118.512 53.1605 118.298 52.8551 118.008 52.6222C117.718 52.3892 117.349 52.2727 116.9 52.2727C116.451 52.2727 116.082 52.3892 115.792 52.6222C115.502 52.8551 115.288 53.1605 115.149 53.5384C115.01 53.9162 114.94 54.3239 114.94 54.7614C114.94 55.1989 115.01 55.6051 115.149 55.9801C115.288 56.3551 115.502 56.6577 115.792 56.8878C116.082 57.1179 116.451 57.233 116.9 57.233ZM126.548 51.4545V58H125.542V51.4545H126.548ZM126.156 54.5739V55.5114C125.929 55.5966 125.703 55.6719 125.478 55.7372C125.254 55.7997 125.018 55.8494 124.771 55.8864C124.524 55.9205 124.252 55.9375 123.957 55.9375C123.216 55.9375 122.62 55.7372 122.172 55.3366C121.725 54.9361 121.502 54.3352 121.502 53.5341V51.4375H122.508V53.5341C122.508 53.8693 122.572 54.1449 122.7 54.3608C122.828 54.5767 123.001 54.7372 123.22 54.8423C123.439 54.9474 123.684 55 123.957 55C124.383 55 124.768 54.9616 125.112 54.8849C125.458 54.8054 125.806 54.7017 126.156 54.5739ZM131.137 58.1364C130.507 58.1364 129.963 57.9972 129.505 57.7188C129.051 57.4375 128.7 57.0455 128.453 56.5426C128.208 56.0369 128.086 55.4489 128.086 54.7784C128.086 54.108 128.208 53.517 128.453 53.0057C128.7 52.4915 129.044 52.0909 129.484 51.804C129.927 51.5142 130.444 51.3693 131.035 51.3693C131.376 51.3693 131.713 51.4261 132.045 51.5398C132.377 51.6534 132.68 51.8381 132.953 52.0938C133.225 52.3466 133.443 52.6818 133.605 53.0994C133.767 53.517 133.848 54.0312 133.848 54.642V55.0682H128.802V54.1989H132.825C132.825 53.8295 132.751 53.5 132.603 53.2102C132.458 52.9205 132.251 52.6918 131.981 52.5241C131.714 52.3565 131.399 52.2727 131.035 52.2727C130.635 52.2727 130.288 52.3722 129.995 52.571C129.706 52.767 129.483 53.0227 129.326 53.3381C129.17 53.6534 129.092 53.9915 129.092 54.3523V54.9318C129.092 55.4261 129.177 55.8452 129.348 56.1889C129.521 56.5298 129.761 56.7898 130.068 56.9688C130.375 57.1449 130.731 57.233 131.137 57.233C131.402 57.233 131.64 57.196 131.853 57.1222C132.069 57.0455 132.255 56.9318 132.412 56.7812C132.568 56.6278 132.689 56.4375 132.774 56.2102L133.745 56.483C133.643 56.8125 133.471 57.1023 133.23 57.3523C132.988 57.5994 132.69 57.7926 132.335 57.9318C131.98 58.0682 131.581 58.1364 131.137 58.1364ZM139.758 54.267V55.2045H136.145V54.267H139.758ZM136.383 51.4545V58H135.377V51.4545H136.383ZM140.525 51.4545V58H139.52V51.4545H140.525ZM143.368 56.517L146.521 51.4545H147.68V58H146.674V52.9375L143.538 58H142.362V51.4545H143.368V56.517ZM152.266 58.1364C151.636 58.1364 151.092 57.9972 150.634 57.7188C150.18 57.4375 149.829 57.0455 149.582 56.5426C149.337 56.0369 149.215 55.4489 149.215 54.7784C149.215 54.108 149.337 53.517 149.582 53.0057C149.829 52.4915 150.173 52.0909 150.613 51.804C151.056 51.5142 151.573 51.3693 152.164 51.3693C152.505 51.3693 152.842 51.4261 153.174 51.5398C153.506 51.6534 153.809 51.8381 154.082 52.0938C154.354 52.3466 154.572 52.6818 154.734 53.0994C154.896 53.517 154.977 54.0312 154.977 54.642V55.0682H149.931V54.1989H153.954C153.954 53.8295 153.88 53.5 153.732 53.2102C153.587 52.9205 153.38 52.6918 153.11 52.5241C152.843 52.3565 152.528 52.2727 152.164 52.2727C151.763 52.2727 151.417 52.3722 151.124 52.571C150.835 52.767 150.612 53.0227 150.455 53.3381C150.299 53.6534 150.221 53.9915 150.221 54.3523V54.9318C150.221 55.4261 150.306 55.8452 150.477 56.1889C150.65 56.5298 150.89 56.7898 151.197 56.9688C151.504 57.1449 151.86 57.233 152.266 57.233C152.531 57.233 152.769 57.196 152.982 57.1222C153.198 57.0455 153.384 56.9318 153.54 56.7812C153.697 56.6278 153.817 56.4375 153.903 56.2102L154.874 56.483C154.772 56.8125 154.6 57.1023 154.359 57.3523C154.117 57.5994 153.819 57.7926 153.464 57.9318C153.109 58.0682 152.71 58.1364 152.266 58.1364ZM159.881 58V51.4545H160.887V54.3011H161.552L163.904 51.4545H165.2L162.558 54.608L165.234 58H163.938L161.79 55.2386H160.887V58H159.881ZM169.838 49.2727H171.099L174.065 56.517H174.168L177.134 49.2727H178.395V58H177.406V51.3693H177.321L174.594 58H173.639L170.912 51.3693H170.827V58H169.838V49.2727ZM182.304 58.1534C181.889 58.1534 181.512 58.0753 181.174 57.919C180.836 57.7599 180.568 57.5312 180.369 57.233C180.17 56.9318 180.071 56.5682 180.071 56.142C180.071 55.767 180.145 55.4631 180.292 55.2301C180.44 54.9943 180.637 54.8097 180.885 54.6761C181.132 54.5426 181.404 54.4432 181.703 54.3778C182.004 54.3097 182.306 54.2557 182.61 54.2159C183.008 54.1648 183.331 54.1264 183.578 54.1009C183.828 54.0724 184.01 54.0256 184.123 53.9602C184.24 53.8949 184.298 53.7812 184.298 53.6193V53.5852C184.298 53.1648 184.183 52.8381 183.953 52.6051C183.725 52.3722 183.38 52.2557 182.917 52.2557C182.437 52.2557 182.061 52.3608 181.788 52.571C181.515 52.7812 181.324 53.0057 181.213 53.2443L180.258 52.9034C180.429 52.5057 180.656 52.196 180.94 51.9744C181.227 51.75 181.539 51.5937 181.877 51.5057C182.218 51.4148 182.554 51.3693 182.883 51.3693C183.093 51.3693 183.335 51.3949 183.608 51.446C183.883 51.4943 184.149 51.5952 184.404 51.7486C184.663 51.902 184.877 52.1335 185.048 52.4432C185.218 52.7528 185.304 53.1676 185.304 53.6875V58H184.298V57.1136H184.247C184.179 57.2557 184.065 57.4077 183.906 57.5696C183.747 57.7315 183.535 57.8693 183.271 57.983C183.007 58.0966 182.684 58.1534 182.304 58.1534ZM182.457 57.25C182.855 57.25 183.19 57.1719 183.463 57.0156C183.738 56.8594 183.946 56.6577 184.085 56.4105C184.227 56.1634 184.298 55.9034 184.298 55.6307V54.7102C184.255 54.7614 184.162 54.8082 184.017 54.8509C183.875 54.8906 183.71 54.9261 183.522 54.9574C183.338 54.9858 183.157 55.0114 182.981 55.0341C182.808 55.054 182.667 55.071 182.559 55.0852C182.298 55.1193 182.054 55.1747 181.826 55.2514C181.602 55.3253 181.42 55.4375 181.281 55.5881C181.145 55.7358 181.076 55.9375 181.076 56.1932C181.076 56.5426 181.206 56.8068 181.464 56.9858C181.725 57.1619 182.056 57.25 182.457 57.25ZM188.145 49.2727V58H187.139V49.2727H188.145ZM189.987 58V51.4545H190.993V58H189.987ZM190.498 50.3636C190.302 50.3636 190.133 50.2969 189.991 50.1634C189.852 50.0298 189.782 49.8693 189.782 49.6818C189.782 49.4943 189.852 49.3338 189.991 49.2003C190.133 49.0668 190.302 49 190.498 49C190.694 49 190.862 49.0668 191.001 49.2003C191.143 49.3338 191.214 49.4943 191.214 49.6818C191.214 49.8693 191.143 50.0298 191.001 50.1634C190.862 50.2969 190.694 50.3636 190.498 50.3636ZM195.494 58.1364C194.903 58.1364 194.384 57.9957 193.938 57.7145C193.495 57.4332 193.148 57.0398 192.898 56.5341C192.651 56.0284 192.528 55.4375 192.528 54.7614C192.528 54.0795 192.651 53.4844 192.898 52.9759C193.148 52.4673 193.495 52.0724 193.938 51.7912C194.384 51.5099 194.903 51.3693 195.494 51.3693C196.085 51.3693 196.602 51.5099 197.045 51.7912C197.491 52.0724 197.837 52.4673 198.085 52.9759C198.335 53.4844 198.46 54.0795 198.46 54.7614C198.46 55.4375 198.335 56.0284 198.085 56.5341C197.837 57.0398 197.491 57.4332 197.045 57.7145C196.602 57.9957 196.085 58.1364 195.494 58.1364ZM195.494 57.233C195.942 57.233 196.312 57.1179 196.602 56.8878C196.891 56.6577 197.106 56.3551 197.245 55.9801C197.384 55.6051 197.454 55.1989 197.454 54.7614C197.454 54.3239 197.384 53.9162 197.245 53.5384C197.106 53.1605 196.891 52.8551 196.602 52.6222C196.312 52.3892 195.942 52.2727 195.494 52.2727C195.045 52.2727 194.675 52.3892 194.386 52.6222C194.096 52.8551 193.881 53.1605 193.742 53.5384C193.603 53.9162 193.533 54.3239 193.533 54.7614C193.533 55.1989 193.603 55.6051 193.742 55.9801C193.881 56.3551 194.096 56.6577 194.386 56.8878C194.675 57.1179 195.045 57.233 195.494 57.233ZM201 54.0625V58H199.995V51.4545H200.966V52.4773H201.051C201.205 52.1449 201.438 51.8778 201.75 51.6761C202.063 51.4716 202.466 51.3693 202.961 51.3693C203.404 51.3693 203.792 51.4602 204.124 51.642C204.456 51.821 204.715 52.0938 204.9 52.4602C205.084 52.8239 205.176 53.2841 205.176 53.8409V58H204.171V53.9091C204.171 53.3949 204.037 52.9943 203.77 52.7074C203.503 52.4176 203.137 52.2727 202.671 52.2727C202.35 52.2727 202.063 52.3423 201.81 52.4815C201.56 52.6207 201.363 52.8239 201.218 53.0909C201.073 53.358 201 53.6818 201 54.0625ZM209.861 51.4545V52.3068H206.469V51.4545H209.861ZM207.457 49.8864H208.463V56.125C208.463 56.4091 208.504 56.6222 208.587 56.7642C208.672 56.9034 208.78 56.9972 208.911 57.0455C209.044 57.0909 209.185 57.1136 209.332 57.1136C209.443 57.1136 209.534 57.108 209.605 57.0966C209.676 57.0824 209.733 57.071 209.776 57.0625L209.98 57.9659C209.912 57.9915 209.817 58.017 209.695 58.0426C209.572 58.071 209.418 58.0852 209.23 58.0852C208.946 58.0852 208.668 58.0241 208.395 57.902C208.125 57.7798 207.901 57.5938 207.722 57.3438C207.545 57.0938 207.457 56.7784 207.457 56.3977V49.8864ZM215.243 58H214.135L217.339 49.2727H218.43L221.635 58H220.527L217.919 50.6534H217.851L215.243 58ZM215.652 54.5909H220.118V55.5284H215.652V54.5909ZM222.858 60.4545V51.4545H223.83V52.4943H223.949C224.023 52.3807 224.125 52.2358 224.256 52.0597C224.389 51.8807 224.58 51.7216 224.827 51.5824C225.077 51.4403 225.415 51.3693 225.841 51.3693C226.392 51.3693 226.878 51.5071 227.298 51.7827C227.719 52.0582 228.047 52.4489 228.283 52.9545C228.518 53.4602 228.636 54.0568 228.636 54.7443C228.636 55.4375 228.518 56.0384 228.283 56.5469C228.047 57.0526 227.72 57.4446 227.303 57.723C226.885 57.9986 226.403 58.1364 225.858 58.1364C225.438 58.1364 225.101 58.0668 224.848 57.9276C224.595 57.7855 224.401 57.625 224.264 57.446C224.128 57.2642 224.023 57.1136 223.949 56.9943H223.864V60.4545H222.858ZM223.847 54.7273C223.847 55.2216 223.919 55.6577 224.064 56.0355C224.209 56.4105 224.42 56.7045 224.699 56.9176C224.977 57.1278 225.318 57.233 225.722 57.233C226.142 57.233 226.493 57.1222 226.774 56.9006C227.058 56.6761 227.271 56.375 227.413 55.9972C227.558 55.6165 227.631 55.1932 227.631 54.7273C227.631 54.267 227.56 53.8523 227.418 53.483C227.278 53.1108 227.067 52.8168 226.783 52.6009C226.501 52.3821 226.148 52.2727 225.722 52.2727C225.313 52.2727 224.969 52.3764 224.69 52.5838C224.412 52.7884 224.202 53.0753 224.06 53.4446C223.918 53.8111 223.847 54.2386 223.847 54.7273ZM230.17 60.4545V51.4545H231.142V52.4943H231.261C231.335 52.3807 231.438 52.2358 231.568 52.0597C231.702 51.8807 231.892 51.7216 232.139 51.5824C232.389 51.4403 232.727 51.3693 233.153 51.3693C233.705 51.3693 234.19 51.5071 234.611 51.7827C235.031 52.0582 235.359 52.4489 235.595 52.9545C235.831 53.4602 235.949 54.0568 235.949 54.7443C235.949 55.4375 235.831 56.0384 235.595 56.5469C235.359 57.0526 235.033 57.4446 234.615 57.723C234.197 57.9986 233.716 58.1364 233.17 58.1364C232.75 58.1364 232.413 58.0668 232.161 57.9276C231.908 57.7855 231.713 57.625 231.577 57.446C231.44 57.2642 231.335 57.1136 231.261 56.9943H231.176V60.4545H230.17ZM231.159 54.7273C231.159 55.2216 231.232 55.6577 231.376 56.0355C231.521 56.4105 231.733 56.7045 232.011 56.9176C232.29 57.1278 232.631 57.233 233.034 57.233C233.455 57.233 233.805 57.1222 234.087 56.9006C234.371 56.6761 234.584 56.375 234.726 55.9972C234.871 55.6165 234.943 55.1932 234.943 54.7273C234.943 54.267 234.872 53.8523 234.73 53.483C234.591 53.1108 234.379 52.8168 234.095 52.6009C233.814 52.3821 233.46 52.2727 233.034 52.2727C232.625 52.2727 232.281 52.3764 232.003 52.5838C231.724 52.7884 231.514 53.0753 231.372 53.4446C231.23 53.8111 231.159 54.2386 231.159 54.7273ZM242.119 52.9205L241.216 53.1761C241.159 53.0256 241.075 52.8793 240.964 52.7372C240.857 52.5923 240.709 52.473 240.521 52.3793C240.334 52.2855 240.094 52.2386 239.801 52.2386C239.401 52.2386 239.067 52.331 238.8 52.5156C238.536 52.6974 238.403 52.929 238.403 53.2102C238.403 53.4602 238.494 53.6577 238.676 53.8026C238.858 53.9474 239.142 54.0682 239.528 54.1648L240.5 54.4034C241.085 54.5455 241.521 54.7628 241.808 55.0554C242.095 55.3452 242.239 55.7187 242.239 56.1761C242.239 56.5511 242.131 56.8864 241.915 57.1818C241.702 57.4773 241.403 57.7102 241.02 57.8807C240.636 58.0511 240.19 58.1364 239.682 58.1364C239.014 58.1364 238.462 57.9915 238.024 57.7017C237.587 57.4119 237.31 56.9886 237.193 56.4318L238.148 56.1932C238.239 56.5455 238.411 56.8097 238.663 56.9858C238.919 57.1619 239.253 57.25 239.665 57.25C240.134 57.25 240.506 57.1506 240.781 56.9517C241.06 56.75 241.199 56.5085 241.199 56.2273C241.199 56 241.119 55.8097 240.96 55.6562C240.801 55.5 240.557 55.3835 240.227 55.3068L239.136 55.0511C238.537 54.9091 238.097 54.6889 237.815 54.3906C237.537 54.0895 237.398 53.7131 237.398 53.2614C237.398 52.892 237.501 52.5653 237.709 52.2812C237.919 51.9972 238.205 51.7741 238.565 51.6122C238.929 51.4503 239.341 51.3693 239.801 51.3693C240.449 51.3693 240.957 51.5114 241.327 51.7955C241.699 52.0795 241.963 52.4545 242.119 52.9205Z" fill="white" fill-opacity="0.8"/>
<defs>
<linearGradient id="paint0_linear_14_47" x1="37.8" y1="26" x2="37.8" y2="32.6" gradientUnits="userSpaceOnUse">
<stop stop-color="#E81C5A"/>
<stop offset="1" stop-color="#821032"/>
</linearGradient>
<linearGradient id="paint1_linear_14_47" x1="30.45" y1="35.3" x2="30.45" y2="56.3" gradientUnits="userSpaceOnUse">
<stop stop-color="#E81C5A"/>
<stop offset="1" stop-color="#821032"/>
</linearGradient>
<linearGradient id="paint2_linear_14_47" x1="45.3" y1="35.3" x2="45.3" y2="56.3" gradientUnits="userSpaceOnUse">
<stop stop-color="#E81C5A"/>
<stop offset="1" stop-color="#821032"/>
</linearGradient>
</defs>
</svg>
