<svg width="361" height="60" viewBox="0 0 361 60" fill="none" xmlns="http://www.w3.org/2000/svg">
<rect width="361" height="60" rx="10" fill="#E81C5A"/>
<path d="M98.555 29.062C98.555 29.6707 98.478 30.2243 98.324 30.723C98.1773 31.2143 97.95 31.6397 97.642 31.999C97.3413 32.3583 96.9527 32.6333 96.476 32.824C96.0067 33.0147 95.453 33.11 94.815 33.11C94.177 33.11 93.6197 33.0147 93.143 32.824C92.6737 32.626 92.285 32.351 91.977 31.999C91.6763 31.6397 91.449 31.2107 91.295 30.712C91.1483 30.2133 91.075 29.6597 91.075 29.051C91.075 28.237 91.207 27.5293 91.471 26.928C91.7423 26.3267 92.153 25.861 92.703 25.531C93.2603 25.1937 93.968 25.025 94.826 25.025C95.6767 25.025 96.377 25.1937 96.927 25.531C97.477 25.861 97.884 26.3303 98.148 26.939C98.4193 27.5403 98.555 28.248 98.555 29.062ZM92.824 29.062C92.824 29.612 92.8937 30.085 93.033 30.481C93.1723 30.877 93.3887 31.1813 93.682 31.394C93.9753 31.6067 94.353 31.713 94.815 31.713C95.2917 31.713 95.673 31.6067 95.959 31.394C96.2523 31.1813 96.465 30.877 96.597 30.481C96.7363 30.085 96.806 29.612 96.806 29.062C96.806 28.2333 96.652 27.5843 96.344 27.115C96.036 26.6457 95.53 26.411 94.826 26.411C94.3567 26.411 93.9753 26.5173 93.682 26.73C93.3887 26.9427 93.1723 27.247 93.033 27.643C92.8937 28.039 92.824 28.512 92.824 29.062ZM105.506 26.994V33H103.867V28.226H101.689V33H100.05V26.994H105.506ZM112.605 33H110.966V28.226H109.459C109.385 29.106 109.294 29.8577 109.184 30.481C109.081 31.097 108.949 31.5993 108.788 31.988C108.634 32.3767 108.436 32.6627 108.194 32.846C107.952 33.022 107.655 33.11 107.303 33.11C107.112 33.11 106.94 33.0953 106.786 33.066C106.632 33.0367 106.492 32.9927 106.368 32.934V31.625C106.448 31.6543 106.533 31.68 106.621 31.702C106.709 31.724 106.8 31.735 106.896 31.735C106.998 31.735 107.094 31.6947 107.182 31.614C107.277 31.5333 107.365 31.3903 107.446 31.185C107.534 30.9797 107.614 30.6973 107.688 30.338C107.761 29.9787 107.827 29.5277 107.886 28.985C107.952 28.435 108.01 27.7713 108.062 26.994H112.605V33ZM116.78 26.873C117.586 26.873 118.202 27.049 118.628 27.401C119.06 27.7457 119.277 28.2773 119.277 28.996V33H118.133L117.814 32.186H117.77C117.601 32.3987 117.425 32.5747 117.242 32.714C117.066 32.8533 116.86 32.9523 116.626 33.011C116.398 33.077 116.116 33.11 115.779 33.11C115.427 33.11 115.108 33.044 114.822 32.912C114.543 32.7727 114.323 32.5637 114.162 32.285C114 31.999 113.92 31.6397 113.92 31.207C113.92 30.569 114.143 30.0997 114.591 29.799C115.038 29.491 115.709 29.3223 116.604 29.293L117.649 29.26V28.996C117.649 28.6807 117.564 28.4497 117.396 28.303C117.234 28.1563 117.007 28.083 116.714 28.083C116.42 28.083 116.134 28.127 115.856 28.215C115.577 28.2957 115.298 28.3983 115.02 28.523L114.481 27.412C114.803 27.2433 115.159 27.1113 115.548 27.016C115.944 26.9207 116.354 26.873 116.78 26.873ZM117.011 30.239C116.483 30.2537 116.116 30.349 115.911 30.525C115.705 30.701 115.603 30.932 115.603 31.218C115.603 31.4673 115.676 31.647 115.823 31.757C115.969 31.8597 116.16 31.911 116.395 31.911C116.747 31.911 117.044 31.8083 117.286 31.603C117.528 31.3903 117.649 31.0933 117.649 30.712V30.217L117.011 30.239ZM125.926 28.226H123.957V33H122.318V28.226H120.349V26.994H125.926V28.226ZM128.618 29.37C128.618 29.4947 128.611 29.6487 128.596 29.832C128.589 30.0153 128.578 30.2023 128.563 30.393C128.556 30.5837 128.545 30.7523 128.53 30.899C128.516 31.0457 128.505 31.1483 128.497 31.207L131.269 26.994H133.238V33H131.654V30.602C131.654 30.404 131.662 30.1877 131.676 29.953C131.691 29.711 131.706 29.4873 131.72 29.282C131.742 29.0693 131.757 28.908 131.764 28.798L129.003 33H127.034V26.994H128.618V29.37ZM139.923 28.226H137.954V33H136.315V28.226H134.346V26.994H139.923V28.226ZM143.825 29.315C144.441 29.315 144.951 29.381 145.354 29.513C145.758 29.6377 146.055 29.832 146.245 30.096C146.443 30.36 146.542 30.69 146.542 31.086C146.542 31.4747 146.451 31.812 146.267 32.098C146.091 32.384 145.809 32.6077 145.42 32.769C145.032 32.923 144.522 33 143.891 33H141.031V26.994H142.67V29.315H143.825ZM144.903 31.108C144.903 30.8733 144.808 30.7047 144.617 30.602C144.434 30.4993 144.159 30.448 143.792 30.448H142.67V31.867H143.814C144.137 31.867 144.397 31.8083 144.595 31.691C144.801 31.5737 144.903 31.3793 144.903 31.108ZM152.561 33.11C151.967 33.11 151.461 33.0037 151.043 32.791C150.625 32.571 150.306 32.2337 150.086 31.779C149.866 31.3243 149.756 30.7413 149.756 30.03C149.756 29.2967 149.881 28.699 150.13 28.237C150.38 27.775 150.724 27.434 151.164 27.214C151.612 26.994 152.125 26.884 152.704 26.884C153.115 26.884 153.471 26.9243 153.771 27.005C154.079 27.0857 154.347 27.181 154.574 27.291L154.09 28.556C153.834 28.4533 153.592 28.369 153.364 28.303C153.144 28.237 152.924 28.204 152.704 28.204C152.418 28.204 152.18 28.2737 151.989 28.413C151.799 28.545 151.656 28.7467 151.56 29.018C151.472 29.282 151.428 29.6157 151.428 30.019C151.428 30.415 151.476 30.745 151.571 31.009C151.674 31.2657 151.821 31.46 152.011 31.592C152.202 31.7167 152.433 31.779 152.704 31.779C153.049 31.779 153.353 31.735 153.617 31.647C153.881 31.5517 154.138 31.4233 154.387 31.262V32.659C154.138 32.8203 153.874 32.934 153.595 33C153.324 33.0733 152.979 33.11 152.561 33.11ZM163.557 26.994V33H161.918V28.226H159.74V33H158.101V26.994H163.557ZM170.732 29.986C170.732 30.4847 170.663 30.9283 170.523 31.317C170.391 31.7057 170.197 32.0357 169.94 32.307C169.691 32.571 169.387 32.7727 169.027 32.912C168.668 33.044 168.261 33.11 167.806 33.11C167.388 33.11 167 33.044 166.64 32.912C166.288 32.7727 165.984 32.571 165.727 32.307C165.471 32.0357 165.269 31.7057 165.122 31.317C164.983 30.9283 164.913 30.4847 164.913 29.986C164.913 29.3187 165.031 28.7577 165.265 28.303C165.5 27.841 165.837 27.489 166.277 27.247C166.717 27.005 167.238 26.884 167.839 26.884C168.404 26.884 168.903 27.005 169.335 27.247C169.768 27.489 170.109 27.841 170.358 28.303C170.608 28.7577 170.732 29.3187 170.732 29.986ZM166.585 29.986C166.585 30.382 166.626 30.7157 166.706 30.987C166.794 31.251 166.93 31.4527 167.113 31.592C167.297 31.724 167.535 31.79 167.828 31.79C168.122 31.79 168.356 31.724 168.532 31.592C168.716 31.4527 168.848 31.251 168.928 30.987C169.016 30.7157 169.06 30.382 169.06 29.986C169.06 29.59 169.016 29.26 168.928 28.996C168.848 28.732 168.716 28.534 168.532 28.402C168.349 28.27 168.111 28.204 167.817 28.204C167.385 28.204 167.069 28.3543 166.871 28.655C166.681 28.9483 166.585 29.392 166.585 29.986ZM179.655 26.994V33H178.126V30.052C178.126 29.7587 178.13 29.4727 178.137 29.194C178.152 28.9153 178.17 28.6587 178.192 28.424H178.159L176.498 33H175.266L173.583 28.413H173.539C173.568 28.655 173.587 28.9153 173.594 29.194C173.609 29.4653 173.616 29.766 173.616 30.096V33H172.087V26.994H174.408L175.904 31.064L177.422 26.994H179.655ZM186.824 29.986C186.824 30.4847 186.755 30.9283 186.615 31.317C186.483 31.7057 186.289 32.0357 186.032 32.307C185.783 32.571 185.479 32.7727 185.119 32.912C184.76 33.044 184.353 33.11 183.898 33.11C183.48 33.11 183.092 33.044 182.732 32.912C182.38 32.7727 182.076 32.571 181.819 32.307C181.563 32.0357 181.361 31.7057 181.214 31.317C181.075 30.9283 181.005 30.4847 181.005 29.986C181.005 29.3187 181.123 28.7577 181.357 28.303C181.592 27.841 181.929 27.489 182.369 27.247C182.809 27.005 183.33 26.884 183.931 26.884C184.496 26.884 184.995 27.005 185.427 27.247C185.86 27.489 186.201 27.841 186.45 28.303C186.7 28.7577 186.824 29.3187 186.824 29.986ZM182.677 29.986C182.677 30.382 182.718 30.7157 182.798 30.987C182.886 31.251 183.022 31.4527 183.205 31.592C183.389 31.724 183.627 31.79 183.92 31.79C184.214 31.79 184.448 31.724 184.624 31.592C184.808 31.4527 184.94 31.251 185.02 30.987C185.108 30.7157 185.152 30.382 185.152 29.986C185.152 29.59 185.108 29.26 185.02 28.996C184.94 28.732 184.808 28.534 184.624 28.402C184.441 28.27 184.203 28.204 183.909 28.204C183.477 28.204 183.161 28.3543 182.963 28.655C182.773 28.9483 182.677 29.392 182.677 29.986ZM197.122 26.994V31.801H198.002V35.156H196.528V33H188.179V26.994H189.818V31.768H191.831V26.994H193.47V31.768H195.483V26.994H197.122ZM201.812 29.315C202.428 29.315 202.937 29.381 203.341 29.513C203.744 29.6377 204.041 29.832 204.232 30.096C204.43 30.36 204.529 30.69 204.529 31.086C204.529 31.4747 204.437 31.812 204.254 32.098C204.078 32.384 203.795 32.6077 203.407 32.769C203.018 32.923 202.508 33 201.878 33H199.018V26.994H200.657V29.315H201.812ZM202.89 31.108C202.89 30.8733 202.794 30.7047 202.604 30.602C202.42 30.4993 202.145 30.448 201.779 30.448H200.657V31.867H201.801C202.123 31.867 202.384 31.8083 202.582 31.691C202.787 31.5737 202.89 31.3793 202.89 31.108ZM214.069 29.986C214.069 30.6533 213.955 31.2217 213.728 31.691C213.5 32.153 213.174 32.505 212.749 32.747C212.331 32.989 211.832 33.11 211.253 33.11C210.761 33.11 210.318 33.0183 209.922 32.835C209.533 32.6443 209.214 32.3583 208.965 31.977C208.723 31.5957 208.565 31.1117 208.492 30.525H207.414V33H205.775V26.994H207.414V29.304H208.514C208.587 28.7833 208.745 28.3433 208.987 27.984C209.236 27.6247 209.555 27.3533 209.944 27.17C210.34 26.9793 210.787 26.884 211.286 26.884C211.828 26.884 212.309 27.005 212.727 27.247C213.145 27.489 213.471 27.841 213.706 28.303C213.948 28.7577 214.069 29.3187 214.069 29.986ZM210.142 29.986C210.142 30.382 210.178 30.7157 210.252 30.987C210.332 31.251 210.457 31.4527 210.626 31.592C210.794 31.724 211.011 31.79 211.275 31.79C211.539 31.79 211.751 31.724 211.913 31.592C212.081 31.4527 212.202 31.251 212.276 30.987C212.356 30.7157 212.397 30.382 212.397 29.986C212.397 29.59 212.356 29.26 212.276 28.996C212.202 28.732 212.081 28.534 211.913 28.402C211.751 28.27 211.535 28.204 211.264 28.204C211 28.204 210.783 28.27 210.615 28.402C210.453 28.534 210.332 28.732 210.252 28.996C210.178 29.26 210.142 29.59 210.142 29.986Z" fill="white"/>
<rect x="230" y="20" width="40" height="20" rx="10" fill="#111111"/>
<rect x="235" y="26" width="12" height="9" rx="4" fill="#E81C5A"/>
<path d="M243.786 28.086V33H242.589V30.053L241.49 33H240.524L239.418 30.046V33H238.221V28.086H239.635L241.014 31.488L242.379 28.086H243.786Z" fill="white"/>
<path d="M254.566 29.668C254.566 29.9527 254.501 30.214 254.37 30.452C254.24 30.6853 254.039 30.8743 253.768 31.019C253.498 31.1637 253.162 31.236 252.76 31.236H252.018V33H250.821V28.086H252.76C253.152 28.086 253.484 28.1537 253.754 28.289C254.025 28.4243 254.228 28.611 254.363 28.849C254.499 29.087 254.566 29.36 254.566 29.668ZM252.669 30.284C252.898 30.284 253.068 30.2303 253.18 30.123C253.292 30.0157 253.348 29.864 253.348 29.668C253.348 29.472 253.292 29.3203 253.18 29.213C253.068 29.1057 252.898 29.052 252.669 29.052H252.018V30.284H252.669ZM258.248 32.132H256.414L256.12 33H254.867L256.645 28.086H258.031L259.809 33H258.542L258.248 32.132ZM257.94 31.208L257.331 29.409L256.729 31.208H257.94ZM264.565 28.086L262.864 31.376V33H261.667V31.376L259.966 28.086H261.324L262.276 30.144L263.221 28.086H264.565Z" fill="white"/>
</svg>
