<svg width="36" height="36" viewBox="0 0 36 36" fill="none" xmlns="http://www.w3.org/2000/svg">
<g clip-path="url(#clip0_2_124)">
<path d="M18 36C27.9411 36 36 27.9411 36 18C36 8.05887 27.9411 0 18 0C8.05887 0 0 8.05887 0 18C0 27.9411 8.05887 36 18 36Z" fill="#0088CC"/>
<path fill-rule="evenodd" clip-rule="evenodd" d="M12.9857 11.8929H23.0786C23.4643 11.8929 23.7857 11.9571 24.1714 12.15C24.6214 12.3429 24.8786 12.6643 25.0071 12.9214C25.0071 12.9214 25.0071 12.9857 25.0714 12.9857C25.2643 13.3071 25.3928 13.6929 25.3928 14.1429C25.3928 14.5286 25.3286 14.9143 25.0714 15.3L18.7071 26.2286C18.5786 26.4857 18.3214 26.6143 18 26.6143C17.7428 26.6143 17.4857 26.4857 17.2928 26.2286L11.0571 15.3C10.9286 15.0429 10.6714 14.7214 10.6714 14.2071C10.6071 13.7571 10.7357 13.3714 10.9286 12.9857C11.1214 12.6 11.4428 12.2786 11.8928 12.15C12.2786 11.8929 12.7286 11.8929 12.9857 11.8929ZM17.2286 13.4357H12.9857C12.7286 13.4357 12.6 13.4357 12.5357 13.5C12.4071 13.5643 12.3428 13.6286 12.2786 13.7571C12.2143 13.8214 12.2143 13.95 12.2143 14.0786C12.2143 14.1429 12.2786 14.2071 12.4071 14.4643L17.2286 22.8214V13.4357ZM18.7714 13.4357V22.8857L23.6571 14.4643C23.7214 14.3357 23.7214 14.2071 23.7214 14.0786C23.7214 13.95 23.7214 13.8214 23.6571 13.7571C23.5928 13.6929 23.5928 13.6286 23.5286 13.6286L23.4643 13.5643C23.3357 13.5 23.2071 13.5 23.0143 13.5H18.7714V13.4357Z" fill="white"/>
</g>
<defs>
<clipPath id="clip0_2_124">
<rect width="36" height="36" fill="white"/>
</clipPath>
</defs>
</svg>
