<svg width="36" height="36" viewBox="0 0 36 36" fill="none" xmlns="http://www.w3.org/2000/svg">
<g clip-path="url(#clip0_2_90)">
<path d="M0 0H36V36H0V0Z" fill="#E82127"/>
<path d="M18 30L21 14C23.668 14 24.308 14.544 24.43 15.744C24.43 15.744 26.218 15.074 27.122 13.712C23.6 12.074 20 12 20 12L18 14.5L16 12C16 12 12.4 12.074 8.88 13.712C9.78 15.072 11.57 15.744 11.57 15.744C11.692 14.544 12.35 14.002 15 14L18 30Z" fill="white"/>
<path d="M18 11.216C21.2255 11.1793 24.4219 11.8304 27.376 13.126C27.82 12.32 28 12 28 12C24.354 10.552 20.94 10.012 18 10C15.06 10.012 11.646 10.552 8 12C8 12 8.228 12.4 8.626 13.126C11.5793 11.8299 14.775 11.1801 18 11.216Z" fill="white"/>
</g>
<defs>
<clipPath id="clip0_2_90">
<rect width="36" height="36" rx="18" fill="white"/>
</clipPath>
</defs>
</svg>
